# xmcd
#
# Track frame offsets:
# 150
# 16238
# 32017
# 48235
# 65123
# 80738
# 93896
# 105764
# 120967
# 137430
# 153173
# 170452
# 185455
# 198608
#
# Disc length: 2818 seconds
#
#
# Revision: 0
# Processed by: cddbd v1.5.1PL2 Copyright (c) Steve Scherf et al.
# Submitted via: FreeRIP 2.942 
#
DISCID=a70b000e
DTITLE=Edson e Hudson - O Chão Vai Tremer
DYEAR=1900
DGENRE=sertanejo
TTITLE0=Entra Na Arena
TTITLE1=Volta
TTITLE2=Porta-Retrato
TTITLE3=Rabo-De-Saia
TTITLE4=Quer Namorar Comigo ?
TTITLE5=Dizem Que Eu Mudei-She Cant´Save
TTITLE6=Cervejaria
TTITLE7=Somos Assim
TTITLE8=Ou Não
TTITLE9=O Bixo Vai Pega
TTITLE10=Só Penso Em Você-Quisiera Poder Olvida
TTITLE11=Ciúmes Exagerado
TTITLE12=Te Dar Tristeza Nunca Mais-Can´t Be
TTITLE13=Sapateia Galera
EXTD=
EXTT0=
EXTT1=
EXTT2=
EXTT3=
EXTT4=
EXTT5=
EXTT6=
EXTT7=
EXTT8=
EXTT9=
EXTT10=
EXTT11=
EXTT12=
EXTT13=
PLAYORDER=
